<svg width="1920" height="2048" viewbox="0 0 1920 2048" xmlns="http://www.w3.org/2000/svg">
	<g>
		<path stroke="currentColor" fill="none" d="m1931.22741,2055.53115c-7.51984,-99.66379 -247.97273,-83.78025 -245.69538,-240.46379c2.27735,-156.68355 260.0122,-100.47961 203.41322,-312.2299c-56.59899,-211.7503 -700.0949,70.27295 -671.74834,-174.50387c28.34656,-244.77683 -167.38345,-571.17829 -458.99686,-592.35097c-291.61341,-21.17268 -564.47408,318.48311 -353.585,621.28044c210.88908,302.79733 -197.63359,613.37308 -430.34349,478.4079c-232.7099,-134.96518 229.57961,-2154.61778 759.3037,-1674.05104c529.72409,480.56674 935.23772,-119.21468 1097.3,133.05004c162.06228,252.26472 -26.02547,533.37653 -220.0907,682.30256c-194.06523,148.92603 214.87495,383.52177 456.01681,364.70161" />
	</g>
</svg>