<svg width="304" height="304" xmlns="http://www.w3.org/2000/svg">
   <path id="svg_2" transform="rotate(90, 152, 152)" fill="#000" d="m44.1,224a5,5 0 1 1 0,2l-44.1,0l0,-2l44.1,0zm160,48a5,5 0 1 1 0,2l-122.1,0l0,-2l122.1,0zm57.8,-46a5,5 0 1 1 0,-2l42.1,0l0,2l-42.1,0zm0,16a5,5 0 1 1 0,-2l42.1,0l0,2l-42.1,0zm6.2,-114a5,5 0 1 1 0,2l-86.2,0a5,5 0 1 1 0,-2l86.2,0zm-256,-48a5,5 0 1 1 0,2l-12.1,0l0,-2l12.1,0zm185.8,34a5,5 0 1 1 0,-2l86.2,0a5,5 0 1 1 0,2l-86.2,0zm60.1,-101.9a5,5 0 1 1 -2,0l0,-12.1l2,0l0,12.1zm-64,208a5,5 0 1 1 -2,0l0,-54.2a5,5 0 1 1 2,0l0,54.2zm48,-198.2l0,58.1l62,0l0,2l-64,0l0,-60.1a5,5 0 1 1 2,0zm16,16l0,26.1l46,0l0,2l-48,0l0,-28.1a5,5 0 1 1 2,0zm-128,96l0,74.1l16,0l0,12.1a5,5 0 1 1 -2,0l0,-10.1l-16,0l0,-76.1a5,5 0 1 1 2,0zm-5.9,-21.9a5,5 0 1 1 0,2l-10.1,0l0,48l-28.1,0a5,5 0 1 1 0,-2l26.1,0l0,-48l12.1,0zm-6.2,130a5,5 0 1 1 0,-2l58.1,0l0,-74.1a5,5 0 1 1 2,0l0,76.1l-60.1,0zm-16,-64a5,5 0 1 1 0,-2l12.1,0l0,48l10.1,0a5,5 0 1 1 0,2l-12.1,0l0,-48l-10.1,0zm-35.9,106.1a5,5 0 1 1 -2,0l0,-10.1l-14,0l0,30l-2,0l0,-32l18,0l0,12.1zm170.1,-108.1a5,5 0 1 1 0,2l-10.1,0l0,94l48,0l0,32l-2,0l0,-30l-48,0l0,-98l12.1,0zm25.8,-30a5,5 0 1 1 0,-2l12.1,0l0,44.1a5,5 0 1 1 -2,0l0,-42.1l-10.1,0zm-64,96a5,5 0 1 1 0,-2l10.1,0l0,-80l16,0l0,-14l-42.1,0a5,5 0 1 1 0,-2l44.1,0l0,18l-16,0l0,80l-12.1,0zm86.2,-210a5,5 0 1 1 0,2l-12.1,0l0,-34l2,0l0,32l10.1,0zm-186.1,69.9l0,44.1l-44.1,0a5,5 0 1 1 0,-2l42.1,0l0,-42.1a5,5 0 1 1 2,0zm-44.1,-67.9a5,5 0 1 1 0,-2l26.1,0l0,-32l2,0l0,34l-28.1,0zm60.1,3.9l0,28.1l-32,0l0,64l-12.1,0a5,5 0 1 1 0,-2l10.1,0l0,-64l32,0l0,-26.1a5,5 0 1 1 2,0zm-12.1,44.1a5,5 0 1 1 0,-2l26.1,0l0,-42.1a5,5 0 1 1 2,0l0,44.1l-28.1,0zm16,-64a5,5 0 1 1 0,-2l28.1,0l0,44.1a5,5 0 1 1 -2,0l0,-42.1l-26.1,0zm102.2,270a5,5 0 1 1 0,2l-122.1,0l0,14l-2,0l0,-16l124.1,0zm21.9,-138.1l0,10.1l16,0l0,34l-16,0l0,62l48,0l0,48l-2,0l0,-46l-48,0l0,-66l16,0l0,-30l-16,0l0,-12.1a5,5 0 1 1 2,0zm-188.1,-131.9a5,5 0 1 1 0,-2l10.1,0l0,-14l-16,0l0,-2l18,0l0,18l-12.1,0zm112,32a5,5 0 1 1 0,-2l26.1,0l0,-48l50,0l0,2l-48,0l0,48l-28.1,0zm-48,-48a5,5 0 0 1 -9.8,-2l2.07,0a3,3 0 1 0 5.66,0l62.17,0l0,34l-18,0l0,-12.1a5,5 0 1 1 2,0l0,10.1l14,0l0,-30l-58.1,0zm0,96a5,5 0 1 1 0,-2l19.1,0l32,-32l39,0l0,-42.1a5,5 0 1 1 2,0l0,44.1l-40.17,0l-32,32l-19.93,0zm28.1,90.1a5,5 0 1 1 -2,0l0,-76.51l31.59,-31.59l48.41,0l0,-58.1a5,5 0 1 1 2,0l0,60.1l-49.59,0l-30.41,30.41l0,75.69zm16,32a5,5 0 1 1 -2,0l0,-99.51l24.59,-24.59l115.51,0a5,5 0 0 1 3.9,-3.9l0,2.07a3,3 0 0 0 0,5.66l0,2.07a5,5 0 0 1 -3.9,-3.9l-114.69,0l-23.41,23.41l0,98.69zm-144,-64a5,5 0 1 1 -2,0l0,-3.51l48,-48l0,-56.59l32,0l0,-48l2,0l0,50l-32,0l0,55.41l-48,48l0,2.69zm32,-102.2l0,43.51l-48,48l0,62.59l26.1,0a5,5 0 1 1 0,2l-28.1,0l0,-65.41l48,-48l0,-42.69a5,5 0 1 1 2,0zm-16,16l0,19.51l-34,34l0,-2.82l32,-32l0,-18.69a5,5 0 1 1 2,0zm-21.9,-37.9a5,5 0 1 1 0,2l-2.69,0l-9.41,9.41l0,-2.81l8.59,-8.6l3.51,0zm265.8,18a5,5 0 1 1 0,-2l18.69,0l7.41,-7.41l0,2.82l-6.59,6.59l-19.51,0zm-16,160a5,5 0 1 1 0,-2l26.1,0l0,-71.41l16,-16l0,2.82l-14,14l0,72.59l-28.1,0zm-208,32a5,5 0 1 1 0,-2l10.1,0l0,-22.59l-23.41,-23.41l-18.69,0a5,5 0 1 1 0,-2l19.51,0l24.59,24.59l0,25.41l-12.1,0zm150.2,14a5,5 0 1 1 0,2l-108.1,0l0,-56.6l-39.4,-39.4l-18.7,0a5,5 0 1 1 0,-2l19.5,0l40.6,40.6l0,55.4l106.1,0zm-150.2,2a5,5 0 1 1 0,-2l26.1,0l0,-46.59l-31.41,-31.41l-26.69,0a5,5 0 1 1 0,-2l27.51,0l32.59,32.59l0,49.41l-28.1,0zm-19.9,-218.2l0,1.61l-24.59,24.59l-9.41,0l0,-2l8.59,0l23.41,-23.41l0,-40.59l2,0l0,39.8zm-32,260.3a5,5 0 0 1 3.9,3.9l-2.07,0a3,3 0 0 0 -3.83,-1.83l0,-46.17l18,0l0,48l-2,0l0,-46l-14,0l0,42.1zm32,-59.1l0,63l-2,0l0,-62l-32,0l0,-2l34,0l0,1zm-17,-223l-17,0l0,-2l16,0l0,-16l2,0l0,18l-1,0zm273,-2l14,0l0,2l-16,0l0,-18l2,0l0,16zm-32,273l0,15l-2,0l0,-14l-14,0l0,14l-2,0l0,-16l18,0l0,1zm-258,-196.9a5.02,5.02 0 0 1 6,4.9a5,5 0 0 1 -6,4.9l0,-2.07a3,3 0 1 0 0,-5.66l0,-2.07zm80,179.9l2,0l0,32l-2,0l0,-32zm37.9,32l-2.07,0a3,3 0 0 0 -5.66,0l-2.07,0a5,5 0 0 1 9.8,0zm-112,-304a5.02,5.02 0 0 1 -5.9,5.9l0,-2.07a3,3 0 0 0 3.83,-3.83l2.07,0zm294.2,0l2.07,0a3,3 0 0 0 1.83,3.83l0,2.07a5,5 0 0 1 -3.9,-5.9zm3.9,300.1l0,2.07a3,3 0 0 0 -1.83,1.83l-2.07,0a5,5 0 0 1 3.9,-3.9zm-207,-200.1a3,3 0 1 0 0,-6a3,3 0 0 0 0,6zm0,-16a3,3 0 1 0 0,-6a3,3 0 0 0 0,6zm16,16a3,3 0 1 0 0,-6a3,3 0 0 0 0,6zm16,16a3,3 0 1 0 0,-6a3,3 0 0 0 0,6zm0,16a3,3 0 1 0 0,-6a3,3 0 0 0 0,6zm-48,32a3,3 0 1 0 0,-6a3,3 0 0 0 0,6zm16,16a3,3 0 1 0 0,-6a3,3 0 0 0 0,6zm32,48a3,3 0 1 0 0,-6a3,3 0 0 0 0,6zm-16,16a3,3 0 1 0 0,-6a3,3 0 0 0 0,6zm32,-16a3,3 0 1 0 0,-6a3,3 0 0 0 0,6zm0,-32a3,3 0 1 0 0,-6a3,3 0 0 0 0,6zm16,32a3,3 0 1 0 0,-6a3,3 0 0 0 0,6zm32,16a3,3 0 1 0 0,-6a3,3 0 0 0 0,6zm0,-16a3,3 0 1 0 0,-6a3,3 0 0 0 0,6zm-16,-64a3,3 0 1 0 0,-6a3,3 0 0 0 0,6zm16,0a3,3 0 1 0 0,-6a3,3 0 0 0 0,6zm16,96a3,3 0 1 0 0,-6a3,3 0 0 0 0,6zm0,16a3,3 0 1 0 0,-6a3,3 0 0 0 0,6zm16,16a3,3 0 1 0 0,-6a3,3 0 0 0 0,6zm16,-144a3,3 0 1 0 0,-6a3,3 0 0 0 0,6zm0,32a3,3 0 1 0 0,-6a3,3 0 0 0 0,6zm16,-32a3,3 0 1 0 0,-6a3,3 0 0 0 0,6zm16,-16a3,3 0 1 0 0,-6a3,3 0 0 0 0,6zm-96,0a3,3 0 1 0 0,-6a3,3 0 0 0 0,6zm0,16a3,3 0 1 0 0,-6a3,3 0 0 0 0,6zm16,-32a3,3 0 1 0 0,-6a3,3 0 0 0 0,6zm96,0a3,3 0 1 0 0,-6a3,3 0 0 0 0,6zm-16,-64a3,3 0 1 0 0,-6a3,3 0 0 0 0,6zm16,-16a3,3 0 1 0 0,-6a3,3 0 0 0 0,6zm-32,0a3,3 0 1 0 0,-6a3,3 0 0 0 0,6zm0,-16a3,3 0 1 0 0,-6a3,3 0 0 0 0,6zm-16,0a3,3 0 1 0 0,-6a3,3 0 0 0 0,6zm-16,0a3,3 0 1 0 0,-6a3,3 0 0 0 0,6zm-16,0a3,3 0 1 0 0,-6a3,3 0 0 0 0,6zm-160,16a3,3 0 1 0 0,-6a3,3 0 0 0 0,6zm-32,0a3,3 0 1 0 0,-6a3,3 0 0 0 0,6zm32,16a3,3 0 1 0 0,-6a3,3 0 0 0 0,6zm-16,16a3,3 0 1 0 0,-6a3,3 0 0 0 0,6zm16,-48a3,3 0 1 0 0,-6a3,3 0 0 0 0,6zm0,240a3,3 0 1 0 0,-6a3,3 0 0 0 0,6zm16,32a3,3 0 1 0 0,-6a3,3 0 0 0 0,6zm-16,-64a3,3 0 1 0 0,-6a3,3 0 0 0 0,6zm0,16a3,3 0 1 0 0,-6a3,3 0 0 0 0,6zm-16,-32a3,3 0 1 0 0,-6a3,3 0 0 0 0,6zm80,-176a3,3 0 1 0 0,-6a3,3 0 0 0 0,6zm16,0a3,3 0 1 0 0,-6a3,3 0 0 0 0,6zm-16,-16a3,3 0 1 0 0,-6a3,3 0 0 0 0,6zm32,48a3,3 0 1 0 0,-6a3,3 0 0 0 0,6zm16,-16a3,3 0 1 0 0,-6a3,3 0 0 0 0,6zm0,-32a3,3 0 1 0 0,-6a3,3 0 0 0 0,6zm112,176a3,3 0 1 0 0,-6a3,3 0 0 0 0,6zm-16,16a3,3 0 1 0 0,-6a3,3 0 0 0 0,6zm0,16a3,3 0 1 0 0,-6a3,3 0 0 0 0,6zm0,16a3,3 0 1 0 0,-6a3,3 0 0 0 0,6zm-240,-64a3,3 0 1 0 0,-6a3,3 0 0 0 0,6zm0,16a3,3 0 1 0 0,-6a3,3 0 0 0 0,6zm0,-32a3,3 0 1 0 0,-6a3,3 0 0 0 0,6zm16,0a3,3 0 1 0 0,-6a3,3 0 0 0 0,6zm-16,-80a3,3 0 1 0 0,-6a3,3 0 0 0 0,6zm32,64a3,3 0 1 0 0,-6a3,3 0 0 0 0,6zm16,-16a3,3 0 1 0 0,-6a3,3 0 0 0 0,6z"/>
</svg>