<?xml version="1.0" encoding="UTF-8" standalone="no"?>
<svg
   xmlns:dc="http://purl.org/dc/elements/1.1/"
   xmlns:cc="http://creativecommons.org/ns#"
   xmlns:rdf="http://www.w3.org/1999/02/22-rdf-syntax-ns#"
   xmlns:svg="http://www.w3.org/2000/svg"
   xmlns="http://www.w3.org/2000/svg"
   viewBox="0 0 3333.3333 3333.3333"
   height="256"
   width="256"
   xml:space="preserve"
   id="svg2"
   version="1.1"><metadata
     id="metadata8"><rdf:RDF><cc:Work
         rdf:about=""><dc:format>image/svg+xml</dc:format><dc:type
           rdf:resource="http://purl.org/dc/dcmitype/StillImage" /></cc:Work></rdf:RDF></metadata><defs
     id="defs6"><clipPath
       id="clipPath18"
       clipPathUnits="userSpaceOnUse"><path
         id="path16"
         d="M 0,2500 H 2500 V 0 H 0 Z" /></clipPath></defs><g
     transform="matrix(1.3333333,0,0,-1.3333333,0,3333.3333)"
     id="g10"><g
       id="g12"><g
         clip-path="url(#clipPath18)"
         id="g14"><g
           transform="translate(991.2827,1281.3491)"
           id="g20"><path
             id="path22"
             style="fill:#702af7;fill-opacity:1;fill-rule:nonzero;stroke:none"
             d="m 0,0 c -100.697,0.02 -182.343,-81.98 -182.363,-182.69 -0.002,-11.965 1.173,-23.902 3.509,-35.637 14.389,-72.346 70.93,-128.902 143.264,-143.302 98.766,-19.644 194.754,44.507 214.396,143.287 2.332,11.726 3.505,23.654 3.502,35.611 V -12.479 C 181.97,-5.732 176.576,-0.338 169.831,0 Z M 1244.855,293.625 C 1201.618,22.539 1063.642,-224.408 855.47,-403.293 647.296,-582.177 382.433,-681.398 107.996,-683.298 c -55.591,-2.137 -111.252,1.244 -166.175,10.087 -236.688,40.223 -413.153,240.294 -423.527,480.183 1.109,129.844 53.221,254.046 145.086,345.801 191.132,190.9 500.066,193.083 693.876,4.903 93.153,-90.447 147.015,-213.898 149.961,-343.712 2.077,-81.99 -33.434,-153.906 -106.416,-155.984 -77.975,0 -114.528,55.65 -114.528,130.648 V -2.976 c 0.06,70.15 -56.488,127.205 -126.627,127.764 h -174.66 c -103.231,0.713 -199.769,-51.021 -256.35,-137.378 -92.051,-140.469 -52.816,-328.971 87.632,-421.035 36.071,-23.644 76.758,-39.343 119.361,-46.055 101.975,-16.049 205.124,20.752 273.92,97.727 l 6.107,9.11 6.115,-10.113 c 42.665,-57.974 111.499,-90.76 183.395,-87.352 131.22,9.538 230.879,122.018 224.562,253.449 0.613,54.233 -5.464,108.333 -18.093,161.078 -32.393,148.998 -118.782,280.733 -242.518,369.795 -256.267,184.458 -610.42,145.66 -820.685,-89.908 -101.53,-113.748 -157.367,-261.059 -156.75,-413.536 1.948,-161.682 66.478,-316.315 180.033,-431.408 113.545,-115.091 267.278,-181.677 428.888,-185.768 0,0 45.741,-4.16 97.307,-2.975 250.666,1.586 495.67,74.699 706.222,210.744 2.995,2.085 5.991,-2.079 3.998,-5.112 C 600.649,-827.494 305.268,-948.313 0.622,-934.244 c -198.834,-3.611 -390.504,74.22 -530.545,215.436 -140.055,141.223 -216.319,333.554 -211.109,532.392 0.096,237.861 112.358,461.744 302.905,604.081 126.293,93.019 278.916,143.413 435.761,143.879 h 234.418 c 185.15,0.139 361.714,78.111 486.549,214.866 1.304,1.446 3.039,2.437 4.948,2.825 3.909,0.847 7.921,-0.904 9.96,-4.345 1.003,-1.685 1.455,-3.639 1.291,-5.598 -9.936,-105.379 -45.012,-206.835 -102.281,-295.846 -1.735,-3.158 -1.439,-7.044 0.754,-9.903 2.181,-2.855 5.837,-4.157 9.331,-3.323 219.447,49.58 402.326,200.413 492.781,406.432 1.134,1.815 2.694,3.323 4.555,4.391 3.802,2.144 8.446,2.144 12.248,0 1.861,-1.062 3.427,-2.569 4.548,-4.391 91.873,-176.024 122.859,-377.528 88.119,-573.027" /></g></g></g></g></svg>