<?xml version="1.0" encoding="UTF-8" standalone="no"?>
<svg 
    role="img" 
    xmlns="http://www.w3.org/2000/svg" 
    width="1000mm"
    height="1000mm"
    viewBox="0 0 1000 1000"
    style="max-width:1.6em; height: auto;">
    
    <path 
        id="path" 
        style="opacity:1;vector-effect:none;fill:#000000;fill-opacity:1;"
        d=" M 723 117C 773 170 797 242 797 319C 797 394 777 441 746 472C 716 503 680 516 651 536C 651 536 650 537 650 537C 650 537 649 538 649 538C 627 550 610 583 610 602C 610 602 610 603 610 603C 610 603 610 603 610 603C 610 617 609 630 601 644C 594 657 575 667 558 666C 558 666 561 666 561 666C 561 666 444 666 444 666C 444 666 445 666 445 666C 422 666 407 651 399 638C 391 625 386 612 386 598C 386 598 386 597 386 597C 386 597 386 597 386 597C 385 548 387 516 397 488C 407 459 425 438 451 414C 451 414 451 414 451 414C 451 414 451 414 451 414C 480 386 513 369 537 353C 549 345 559 338 564 331C 570 325 571 321 572 315C 571 300 566 283 555 270C 544 257 528 247 495 246C 495 246 494 246 494 246C 494 246 493 246 493 246C 473 244 463 245 449 254C 436 263 419 281 396 313C 396 313 395 315 395 315C 395 315 394 316 394 316C 384 326 372 336 357 341C 342 347 321 347 305 336C 305 336 304 336 304 336C 304 336 226 278 226 278C 226 278 224 276 224 276C 215 266 207 253 204 238C 201 222 204 204 214 188C 214 188 214 188 214 188C 214 188 214 188 214 188C 250 133 285 93 330 67C 376 41 430 31 504 31C 598 31 673 64 723 117C 723 117 723 117 723 117M 355 111C 319 131 290 164 256 216C 253 220 252 223 253 228C 254 231 257 236 260 241C 260 241 334 295 334 295C 335 296 334 296 339 295C 344 293 351 288 357 282C 380 249 400 226 422 212C 445 197 471 193 498 196C 498 196 496 196 496 196C 540 197 573 214 593 238C 614 261 621 290 622 315C 622 315 622 315 622 315C 622 315 622 316 622 316C 621 335 613 351 602 364C 592 377 578 386 565 395C 537 413 507 429 485 450C 461 473 450 486 444 504C 438 523 435 549 436 596C 436 597 438 606 441 611C 445 616 446 616 444 616C 444 616 444 616 444 616C 444 616 559 616 559 616C 560 613 560 609 560 603C 560 603 560 604 560 604C 559 561 583 517 623 495C 658 471 690 458 711 437C 732 415 747 386 747 319C 747 253 726 194 686 151C 646 109 587 81 504 81C 435 81 390 91 355 111C 355 111 355 111 355 111M 504 702C 577 702 636 762 636 834C 636 869 622 903 597 927C 573 952 539 966 504 966C 504 966 504 966 504 966C 469 966 436 952 411 927C 386 903 372 869 372 834C 372 762 432 702 504 702C 504 702 504 702 504 702M 422 834C 422 856 431 877 446 892C 462 907 482 916 504 916C 526 916 547 907 562 892C 577 877 586 856 586 834C 586 789 550 752 504 752C 504 752 504 752 504 752C 459 752 422 789 422 834C 422 834 422 834 422 834"
        transform="">
    </path>    
</svg>