<?xml version="1.0" encoding="UTF-8" standalone="no"?>
<svg 
    role="img" 
    xmlns="http://www.w3.org/2000/svg" 
    width="1000mm"
    height="1000mm"
    viewBox="0 0 1000 1000"
    style="max-width:1.6em; height: auto;">
    
    <path 
        id="path" 
        style="opacity:1;vector-effect:none;fill:#000000;fill-opacity:1;"
        d=" M 541 288C 541 288 627 373 627 373C 627 373 713 459 713 459C 713 459 713 288 713 288C 713 288 541 288 541 288M 450 213C 450 213 750 213 750 213C 771 213 787 229 788 250C 788 250 788 550 788 550C 787 565 778 579 764 585C 750 590 734 587 723 577C 723 577 600 453 600 453C 600 453 277 777 277 777C 267 786 253 790 240 787C 227 783 217 773 213 760C 210 747 214 733 223 723C 223 723 547 400 547 400C 547 400 423 277 423 277C 413 266 410 250 415 236C 421 222 435 213 450 213C 450 213 450 213 450 213"
        transform="rotate(270,500,500)">
    </path>    
</svg>