<?xml version="1.0" encoding="UTF-8" standalone="no"?>
<svg 
    role="img" 
    xmlns="http://www.w3.org/2000/svg" 
    width="1000mm"
    height="1000mm"
    viewBox="0 0 1000 1000"
    style="max-width:1.6em; height: auto;">
    
    <path 
        id="path" 
        style="opacity:1;vector-effect:none;fill:#000000;fill-opacity:1;"
        d=" M 575 125C 575 125 600 125 600 125C 628 125 650 147 650 175C 650 203 628 225 600 225C 600 225 400 225 400 225C 372 225 350 203 350 175C 350 147 372 125 400 125C 400 125 425 125 425 125C 425 84 459 50 500 50C 541 50 575 84 575 125C 575 125 575 125 575 125M 475 125C 475 132 478 138 482 143C 487 147 493 150 500 150C 507 150 513 147 518 143C 522 138 525 132 525 125C 525 111 514 100 500 100C 486 100 475 111 475 125C 475 125 475 125 475 125M 325 175C 325 189 314 200 300 200C 300 200 250 200 250 200C 236 200 225 211 225 225C 225 225 225 875 225 875C 225 889 236 900 250 900C 250 900 750 900 750 900C 764 900 775 889 775 875C 775 875 775 225 775 225C 775 211 764 200 750 200C 750 200 700 200 700 200C 686 200 675 189 675 175C 675 161 686 150 700 150C 700 150 750 150 750 150C 791 150 825 184 825 225C 825 225 825 875 825 875C 825 916 791 950 750 950C 750 950 250 950 250 950C 209 950 175 916 175 875C 175 875 175 225 175 225C 175 184 209 150 250 150C 250 150 300 150 300 150C 300 150 300 150 300 150C 314 150 325 161 325 175C 325 175 325 175 325 175M 350 350C 350 364 339 375 325 375C 311 375 300 364 300 350C 300 336 311 325 325 325C 339 325 350 336 350 350C 350 350 350 350 350 350M 675 325C 689 325 700 336 700 350C 700 364 689 375 675 375C 675 375 400 375 400 375C 386 375 375 364 375 350C 375 336 386 325 400 325C 400 325 675 325 675 325M 350 500C 350 514 339 525 325 525C 311 525 300 514 300 500C 300 486 311 475 325 475C 339 475 350 486 350 500C 350 500 350 500 350 500M 675 475C 689 475 700 486 700 500C 700 514 689 525 675 525C 675 525 400 525 400 525C 386 525 375 514 375 500C 375 486 386 475 400 475C 400 475 675 475 675 475M 350 650C 350 664 339 675 325 675C 311 675 300 664 300 650C 300 636 311 625 325 625C 339 625 350 636 350 650C 350 650 350 650 350 650M 675 625C 689 625 700 636 700 650C 700 664 689 675 675 675C 675 675 400 675 400 675C 386 675 375 664 375 650C 375 636 386 625 400 625C 400 625 675 625 675 625"
        transform="">
    </path>    
</svg>