<?xml version="1.0" encoding="UTF-8" standalone="no"?>
<svg 
    role="img" 
    xmlns="http://www.w3.org/2000/svg" 
    width="1000mm"
    height="1000mm"
    viewBox="0 0 1000 1000"
    style="max-width:1.6em; height: auto;">
    
    <path 
        id="path" 
        style="opacity:1;vector-effect:none;fill:#000000;fill-opacity:1;"
        d=" M 450 212C 450 212 750 212 750 212C 771 213 787 229 787 250C 787 250 787 550 787 550C 787 565 778 579 764 585C 750 590 734 587 723 577C 723 577 600 453 600 453C 600 453 277 777 277 777C 267 786 253 790 240 787C 227 783 217 773 213 760C 210 747 214 733 223 723C 223 723 547 400 547 400C 547 400 423 277 423 277C 413 266 410 250 415 236C 421 222 435 213 450 212C 450 212 450 212 450 212"
        transform="rotate(90,500,500)">
    </path>    
</svg>