<?xml version="1.0" encoding="UTF-8" standalone="no"?>
<svg 
    role="img" 
    xmlns="http://www.w3.org/2000/svg" 
    width="1000mm"
    height="1000mm"
    viewBox="0 0 1000 1000"
    style="max-width:1.6em; height: auto;">
    
    <path 
        id="path" 
        style="opacity:1;vector-effect:none;fill:#000000;fill-opacity:1;"
        d=" M 850 75C 891 75 925 109 925 150C 925 150 925 650 925 650C 925 691 891 725 850 725C 850 725 511 725 511 725C 511 725 344 916 344 916C 337 924 326 927 316 923C 306 920 300 910 300 900C 300 900 300 725 300 725C 300 725 150 725 150 725C 109 725 75 691 75 650C 75 650 75 150 75 150C 75 110 107 77 147 75C 148 75 149 75 150 75C 150 75 850 75 850 75M 125 150C 125 150 125 650 125 650C 125 664 136 675 150 675C 150 675 325 675 325 675C 339 675 350 686 350 700C 350 700 350 833 350 833C 350 833 481 684 481 684C 486 678 493 675 500 675C 500 675 850 675 850 675C 864 675 875 664 875 650C 875 650 875 150 875 150C 875 136 864 125 850 125C 850 125 150 125 150 125C 136 125 125 136 125 150C 125 150 125 150 125 150"
        transform="translate(1000,0) scale(-1,1)">
    </path>    
</svg>