<?xml version="1.0" encoding="UTF-8" standalone="no"?>
<svg 
    role="img" 
    xmlns="http://www.w3.org/2000/svg" 
    width="1000mm"
    height="1000mm"
    viewBox="0 0 1000 1000"
    style="max-width:1.6em; height: auto;">
    
    <path 
        id="path" 
        style="opacity:1;vector-effect:none;fill:#000000;fill-opacity:1;"
        d=" M 300 726C 280 726 263 742 263 763C 263 783 280 799 300 799C 320 799 337 783 337 763C 337 742 320 726 300 726C 300 726 300 726 300 726M 425 725C 411 725 399 732 392 744C 385 755 385 770 392 781C 399 793 411 800 425 800C 425 800 700 800 700 800C 714 800 726 793 733 781C 740 770 740 755 733 744C 726 732 714 725 700 725C 700 725 425 725 425 725M 300 551C 280 551 263 567 263 588C 263 608 280 624 300 624C 320 624 337 608 337 588C 337 567 320 551 300 551C 300 551 300 551 300 551M 425 550C 411 550 399 557 392 569C 385 580 385 595 392 606C 399 618 411 625 425 625C 425 625 700 625 700 625C 714 625 726 618 733 606C 740 595 740 580 733 569C 726 557 714 550 700 550C 700 550 425 550 425 550M 300 376C 280 376 263 392 263 413C 263 433 280 449 300 449C 320 449 337 433 337 413C 337 392 320 376 300 376C 300 376 300 376 300 376M 425 375C 411 375 399 382 392 394C 385 405 385 420 392 431C 399 443 411 450 425 450C 425 450 700 450 700 450C 714 450 726 443 733 431C 740 420 740 405 733 394C 726 382 714 375 700 375C 700 375 425 375 425 375M 250 150C 250 150 325 150 325 150C 325 150 325 200 325 200C 325 241 359 275 400 275C 400 275 600 275 600 275C 641 275 675 241 675 200C 675 200 675 150 675 150C 675 150 750 150 750 150C 791 150 825 184 825 225C 825 225 825 875 825 875C 825 916 791 950 750 950C 750 950 250 950 250 950C 209 950 175 916 175 875C 175 875 175 225 175 225C 175 184 209 150 250 150C 250 150 250 150 250 150M 500 100C 486 100 475 111 475 125C 475 139 486 150 500 150C 514 150 525 139 525 125C 525 111 514 100 500 100C 500 100 500 100 500 100M 500 50C 541 50 575 84 575 125C 575 125 600 125 600 125C 614 125 625 136 625 150C 625 150 625 200 625 200C 625 214 614 225 600 225C 600 225 400 225 400 225C 386 225 375 214 375 200C 375 200 375 150 375 150C 375 136 386 125 400 125C 400 125 425 125 425 125C 425 84 459 50 500 50C 500 50 500 50 500 50"
        transform="">
    </path>    
</svg>