<?xml version="1.0" encoding="UTF-8" standalone="no"?>
<svg 
    role="img" 
    xmlns="http://www.w3.org/2000/svg" 
    width="1000mm"
    height="1000mm"
    viewBox="0 0 1000 1000"
    style="max-width:1.6em; height: auto;">
    
    <path 
        id="path" 
        style="opacity:1;vector-effect:none;fill:#000000;fill-opacity:1;"
        d="M 500 0C 224 0 0 224 0 500C 0 776 224 1000 500 1000C 776 1000 1000 776 1000 500C 1000 224 776 0 500 0C 500 0 500 0 500 0 M 350 625C 449 650 451 649 501 649C 550 649 555 650 654 625C 757 625 792 647 831 725C 736 858 607 902 500 900C 368 901 239 831 173 730C 212 652 247 625 350 625C 350 625 350 625 350 625M 499 427C 475 427 455 447 455 472C 455 496 475 516 499 516C 524 516 544 496 544 472C 544 447 524 427 499 427C 499 427 499 427 499 427M 506 188C 455 188 422 209 396 247C 391 253 392 263 399 268C 399 268 427 289 427 289C 433 294 443 292 448 286C 464 266 476 254 501 254C 521 254 545 267 545 286C 545 300 533 308 514 319C 491 331 461 347 461 387C 461 387 461 393 461 393C 461 402 468 408 476 408C 476 408 523 408 523 408C 531 408 538 402 538 393C 538 393 538 389 538 389C 538 362 618 361 618 287C 618 231 560 188 506 188C 506 188 506 188 506 188M 501 129C 624 129 724 229 724 352C 724 475 624 575 501 575C 378 575 278 475 278 352C 278 229 378 129 501 129C 501 129 501 129 501 129"
        transform="">
    </path>    
</svg>