<?xml version="1.0" encoding="UTF-8" standalone="no"?>
<svg 
    role="img" 
    xmlns="http://www.w3.org/2000/svg" 
    width="1000mm"
    height="1000mm"
    viewBox="0 0 1000 1000"
    style="max-width:1.6em; height: auto;">
    
    <path 
        id="path" 
        style="opacity:1;vector-effect:none;fill:#000000;fill-opacity:1;"
        d=" M 500 715C 514 715 525 727 525 740 525 782 525 823 525 865 525 879 514 890 500 890 486 890 475 879 475 865 475 823 475 782 475 740 475 727 486 715 500 715ZM 667 645C 675 645 682 647 688 653 718 683 748 713 778 743 787 752 787 768 778 778 768 788 752 788 742 778 712 748 682 718 652 688 643 678 643 662 652 653 656 649 662 646 667 645ZM 327 645C 335 645 342 647 348 653 357 662 357 678 348 688 318 718 288 748 258 778 248 788 232 788 222 778 213 768 213 752 222 743 252 713 282 683 312 653 316 649 322 646 327 645ZM 740 475C 782 475 823 475 865 475 879 475 890 486 890 500 890 514 879 525 865 525 823 525 782 525 740 525 726 525 715 514 715 500 715 486 726 475 740 475ZM 135 475C 177 475 218 475 260 475 274 475 285 486 285 500 285 514 274 525 260 525 218 525 177 525 135 525 121 525 110 514 110 500 110 486 121 475 135 475ZM 500 375C 431 375 375 431 375 500 375 570 431 625 500 625 569 625 625 570 625 500 625 431 569 375 500 375ZM 500 325C 596 325 675 404 675 500 675 597 596 675 500 675 404 675 325 597 325 500 325 404 404 325 500 325ZM 757 215C 765 215 772 217 778 223 787 232 787 248 778 258 748 288 718 318 688 348 678 358 662 358 652 348 643 338 643 322 652 313 682 283 712 253 742 223 746 219 752 216 757 215ZM 237 215C 245 215 252 217 258 223 288 253 318 283 348 313 357 322 357 338 348 348 338 358 322 358 312 348 282 318 252 288 222 258 213 248 213 232 222 223 226 219 232 216 237 215ZM 500 110C 514 110 525 121 525 135 525 177 525 219 525 260 525 274 514 285 500 285 486 285 475 274 475 260 475 219 475 177 475 135 475 121 486 110 500 110Z"
        transform="">
    </path>    
</svg>