<?xml version="1.0" encoding="UTF-8" standalone="no"?>
<svg 
    role="img" 
    xmlns="http://www.w3.org/2000/svg" 
    width="1000mm"
    height="1000mm"
    viewBox="0 0 1000 1000"
    style="max-width:1.6em; height: auto;">
    
    <path 
        id="path" 
        style="opacity:1;vector-effect:none;fill:#000000;fill-opacity:1;"
        d="M 0 0C 0 0 0 53 0 53C 0 53 947 1000 947 1000C 947 1000 1000 1000 1000 1000C 1000 1000 1000 947 1000 947C 1000 947 53 0 53 0C 53 0 0 0 0 0C 0 0 0 0 0 0 M 538 135C 538 177 538 218 538 260 538 281 521 298 500 298 479 298 462 281 462 260 462 218 462 177 462 135 462 114 479 97 500 97 521 97 538 114 538 135ZM 267 213C 297 243 327 273 357 303 371 318 371 342 357 357 342 371 318 371 303 357 273 327 243 297 213 267 199 252 199 228 213 213 221 206 230 202 240 202 250 202 259 206 267 213ZM 787 213C 801 228 801 252 787 267 757 297 727 327 697 357 682 371 658 371 643 357 629 342 629 318 643 303 673 273 703 243 733 213 741 206 750 203 760 203 770 203 779 206 787 213ZM 688 500C 688 603 603 688 500 688 397 688 312 603 312 500 312 397 397 312 500 312 603 312 688 397 688 500ZM 260 462C 281 463 298 479 298 500 298 521 281 537 260 538 218 538 177 538 135 538 114 538 97 521 97 500 97 479 114 462 135 462 177 462 218 462 260 462ZM 865 462C 886 462 902 479 902 500 902 521 886 538 865 538 823 538 782 538 740 538 719 538 702 521 702 500 702 479 719 462 740 462 782 462 823 462 865 462ZM 357 643C 371 658 371 682 357 697 327 727 297 757 267 787 252 801 228 801 213 787 199 772 199 748 213 733 243 703 273 673 303 643 311 636 320 633 330 633 340 633 349 636 357 643ZM 697 643C 727 673 757 703 787 733 801 748 801 772 787 787 772 801 748 801 733 787 703 757 673 727 643 697 629 682 629 658 643 643 651 636 660 633 670 633 680 633 689 636 697 643ZM 538 740C 538 782 538 823 538 865 538 885 521 902 500 902 479 902 462 885 462 865 462 823 462 782 462 740 462 719 479 703 500 703 521 703 538 719 538 740Z"
        transform="">
    </path>    
</svg>